<svg width="506" height="424" viewBox="0 0 506 424" fill="none" xmlns="http://www.w3.org/2000/svg">
<path d="M417.97 417.97C425.662 425.662 438.2 425.709 445.27 417.442C473.373 384.584 492.661 344.978 501.139 302.358C510.901 253.281 505.891 202.411 486.742 156.181C467.593 109.951 435.165 70.4382 393.559 42.6382C351.954 14.8382 303.039 2.28655e-06 253 0C202.961 -2.28655e-06 154.046 14.8382 112.441 42.6382C70.8351 70.4382 38.4075 109.951 19.2585 156.181C0.10951 202.411 -4.90074 253.281 4.86132 302.358C13.339 344.978 32.6271 384.584 60.7298 417.442C67.8003 425.709 80.3376 425.662 88.0295 417.97C95.7215 410.278 95.6417 397.861 88.6907 389.493C66.0349 362.221 50.4547 329.649 43.4975 294.673C35.2555 253.237 39.4856 210.288 55.653 171.256C71.8204 132.225 99.1989 98.8638 134.326 75.3924C169.454 51.9209 210.753 39.3931 253 39.3931C295.247 39.3931 336.546 51.921 371.674 75.3924C406.801 98.8638 434.18 132.225 450.347 171.256C466.514 210.288 470.745 253.237 462.502 294.673C455.545 329.649 439.965 362.221 417.309 389.493C410.358 397.861 410.278 410.278 417.97 417.97Z" fill="url(#paint0_angular_52_415)"/>
<defs>
<radialGradient id="paint0_angular_52_415" cx="0" cy="0" r="1" gradientUnits="userSpaceOnUse" gradientTransform="translate(253.584 235.471) rotate(56.7116) scale(323.631)">
<stop offset="0.234424" stop-color="#2659DC"/>
<stop offset="0.961891" stop-color="#FF0E0E"/>
</radialGradient>
</defs>
</svg>
